<?xml version="1.0" encoding="UTF-8"?>
<svg id="Layer_1" data-name="Layer 1" xmlns="http://www.w3.org/2000/svg" viewBox="0 0 512 512">
  <defs>
    <style>
      .cls-1 {
        fill: #786337;
      }
    </style>
  </defs>
  <path class="cls-1" d="M464,256c0,114.88-93.12,208-208,208S48,370.88,48,256,141.12,48,256,48s208,93.12,208,208ZM0,256c0,141.38,114.62,256,256,256s256-114.62,256-256S397.38,0,256,0,0,114.62,0,256ZM232,120v136c0,8,4,15.5,10.7,20l96,64c11,7.4,25.9,4.4,33.3-6.7s4.4-25.9-6.7-33.3l-85.3-56.8V120c0-13.3-10.7-24-24-24s-24,10.7-24,24Z"/>
</svg>