<?xml version="1.0" encoding="UTF-8"?>
<svg id="Layer_1" data-name="Layer 1" xmlns="http://www.w3.org/2000/svg" viewBox="0 0 469.3 397.52">
  <defs>
    <style>
      .cls-1 {
        fill: #fff;
      }
    </style>
  </defs>
  <path class="cls-1" d="M223,8.7c-21.6,18-43.9,41.3-58.9,61.6-8,10.8-24,37.3-25.7,42.4,0,.2-7.7-1.5-17-3.7-14.9-3.5-41.1-8-46.5-8-1.8,0-1.9,1-1.9,33.6v33.7l-5.2-.7c-21.1-2.5-43.7-2.9-62-.9l-5.8,.6v16.6c0,42.4,8,81.2,23.5,113.8,15.9,33.6,43.5,62.3,75,78.1,25.2,12.7,46.9,18.5,79.3,21.2,13.3,1.1,44.2,.3,44.2-1.2,0-.5-1.1-5.3-2.4-10.6-3.2-12.8-6.3-32.6-7.6-48.6-3.3-41.4,2.3-80.4,16.1-111.9,5.9-13.5,5.8-13.5,11.1-2,16.5,35.3,22.1,85.8,14.7,133.8-1.3,8.8-6.7,36.9-7.5,38.8-.4,1.1,2.4,1.5,15.8,2,45,1.8,85.7-7.6,118.4-27.4,43.9-26.5,73.1-73.5,83.4-133.9,2.8-17,4-29.3,4.7-50.1l.6-18.6-5.9-.6c-15.6-1.6-25.3-1.8-41.2-.8-9.6,.7-19.3,1.6-21.8,2l-4.4,.8V101h-2.7c-6.8,0-44.5,6.9-54.8,9.9-8.7,2.6-7.9,3-13.2-7.1-6.5-12.7-22.3-36.1-33-48.8-11.6-13.9-29.3-31.4-45-44.5-6.9-5.8-12.9-10.5-13.2-10.5s-5.3,4-11.1,8.7Zm17.1,22c16.7,14.5,35,34.2,47.6,51.3,9.5,12.8,22.3,34,22.3,36.8,0,.5-2.1,1.7-4.7,2.7-22.3,8.4-50.2,25.8-64.4,40.1l-6.2,6.3-7.6-6.8c-20-17.8-38.9-29.6-61.6-38.6-3.8-1.5-7.2-2.9-7.4-3.1-.6-.5,8.5-16.9,13.9-25.1,11.6-17.4,20.4-27.8,40.1-47.6,11.3-11.4,21.1-20.7,21.7-20.7,.5,0,3.4,2.1,6.3,4.7ZM112.5,127.6c6.1,1.4,12.5,2.8,14.3,3.1,1.7,.3,3.2,1,3.2,1.4,0,.5-1.5,6-3.4,12.2-1.9,6.1-4.3,16.5-5.4,23s-2.2,12-2.4,12.3c-.3,.2-3.6-.7-7.5-2s-9.6-3-12.7-3.7l-5.6-1.2v-48.9l4.3,.7c2.3,.4,9.2,1.8,15.2,3.1Zm263.3,20.5l-.3,24.1-11.5,3.3c-6.3,1.8-12.2,3.6-13.1,4-1.4,.5-1.8-.3-2.4-4.7-1.3-9.8-4.4-23.3-7.4-32.8-1.7-5.2-2.7-9.8-2.3-10.1,1.1-1,30.5-7.6,35-7.8l2.2-.1-.2,24.1Zm-204.3-.5c18.6,9.3,31.8,18.6,44.8,31.5l8.8,8.7-2.4,4c-6.9,10.9-15.9,29.9-19.6,41.5l-1.3,3.7-10.1-10.6c-13.8-14.5-31.3-27.4-47.9-35.5-4-1.9-4.8-2.8-4.8-5,0-7.6,5.9-34.8,9.9-45.1l1-2.7,6.3,2.5c3.5,1.4,10.3,4.6,15.3,7Zm152.5,7.9c1.7,6.4,4.2,19.6,5.4,28.8,.5,3.6,.4,3.8-4.7,6.4-17.4,8.8-32.5,19.9-46.9,34.5-5.9,5.9-10.9,10.8-11.2,10.8-.2,0-1.2-2.4-2.2-5.3-2.8-8.8-11.1-26.5-15.9-34.2-2.5-4-4.5-7.7-4.5-8.3,0-1.7,14.3-15.6,22.6-21.9,14.2-10.7,27.1-18,43.9-24.9l8-3.2,1.8,5.1c1,2.9,2.6,8.3,3.7,12.2ZM65,188.3l7.5,1.2,.6,38.5c.6,41.8,.6,41.6,6.9,57.1,11.2,27,40.6,59.6,75.5,83.4l10,6.8-5.9-.7c-8.5-1-24.5-5.2-35.6-9.3-31.8-11.9-59.1-35.1-76.4-65.1-9.6-16.6-17.4-38.4-22.1-61.6-2.6-12.9-5.5-37.8-5.5-47.2v-5.7l18.8,.7c10.3,.3,22.1,1.2,26.2,1.9Zm383.2,5.4c-.1,4.3-.9,13.8-1.7,21.2-8.5,77.5-45.4,130.6-105.4,151.5-11.5,4-23.9,7.2-32.1,8.2-6.4,.8-6.3,.6,4-6.4,18.2-12.4,41.3-33.3,53.3-48,13-16.1,22.7-33.7,26.9-48.8,2-7.3,2.2-10.8,2.6-45l.4-37.2,9.6-1.1c5.3-.6,11.1-1.3,12.7-1.5,1.7-.2,9.1-.4,16.5-.5l13.5-.1-.3,7.7Zm-341.7,4.1l11,3.7,.7,12c2.7,44.5,17.6,89,43.4,128.7,3.5,5.4,6,9.8,5.7,9.8-2.4,0-22.2-16.9-35.4-30-19.7-19.7-29-33.1-35.7-51.5-2.6-6.9-2.6-7.4-3-41.8-.3-28.3-.1-34.7,1-34.6,.7,0,6.3,1.7,12.3,3.7Zm269.5,24.1c0,30.5-.9,39.8-4.6,50.3-8.9,24.7-36,56.1-66.4,77.1l-4.4,3.1,2.1-3.5c1.1-1.8,3.8-6.3,6-9.9,25-40.7,39.4-83.9,41-122.8,.6-14.3,.6-14.4,3.2-15.4,3.8-1.6,20.4-6.7,21.9-6.7,.9-.1,1.2,6.1,1.2,27.8Zm-47,2.5c-3,26.9-11.4,53.6-25.7,82.1-6.6,13.2-20,35.1-25.4,41.5l-2.9,3.5,.8-3.5c.4-1.9,.7-17.2,.7-34,0-23.8-.4-32.7-1.7-40.5l-1.7-10,4.7-7c5.8-8.7,23.4-26.5,32.6-33.1,11.4-8.1,19-12.3,19.4-10.6,.2,.8-.1,6-.8,11.6Zm-185.7-10.7c14.7,8.3,39,30.3,47.6,43.1l4.2,6.3-1.6,12.2c-2.3,17.1-3,45.4-1.6,61.6,.7,7.3,1,13.5,.8,13.8-.7,.6-13.7-19-20.6-31-18.1-31.4-30.2-66.9-32.6-95.7-.3-4.1-.8-8.5-1.1-9.8-.5-2.7,.7-2.8,4.9-.5Z"/>
</svg>