<?xml version="1.0" encoding="UTF-8"?>
<svg id="Layer_1" data-name="Layer 1" xmlns="http://www.w3.org/2000/svg" viewBox="0 0 148.98 52.56">
  <defs>
    <style>
      .cls-1 {
        font-family: RocaOne-Bold, 'Roca One';
        font-size: 21.08px;
        font-weight: 700;
      }

      .cls-1, .cls-2 {
        fill: #786337;
      }

      .cls-3 {
        letter-spacing: -.13em;
      }

      .cls-4 {
        letter-spacing: -.04em;
      }
    </style>
  </defs>
  <text class="cls-1" transform="translate(0 41.62)"><tspan class="cls-4" x="0" y="0">NUANSA B</tspan><tspan class="cls-3" x="102" y="0">A</tspan><tspan class="cls-4" x="114.35" y="0">TIK</tspan></text>
  <path class="cls-2" d="M78.62,.48c-1.19,1-2.43,2.28-3.26,3.41-.44,.6-1.33,2.06-1.42,2.34,0,.01-.43-.08-.94-.2-.82-.19-2.27-.44-2.57-.44-.1,0-.11,.06-.11,1.86v1.86l-.29-.04c-1.17-.14-2.42-.16-3.43-.05l-.32,.03v.92c0,2.34,.44,4.49,1.3,6.29,.88,1.86,2.41,3.44,4.15,4.32,1.39,.7,2.59,1.02,4.38,1.17,.74,.06,2.44,.02,2.44-.07,0-.03-.06-.29-.13-.59-.18-.71-.35-1.8-.42-2.69-.18-2.29,.13-4.45,.89-6.19,.33-.75,.32-.75,.61-.11,.91,1.95,1.22,4.74,.81,7.4-.07,.49-.37,2.04-.41,2.15-.02,.06,.13,.08,.87,.11,2.49,.1,4.74-.42,6.55-1.52,2.43-1.47,4.04-4.06,4.61-7.4,.15-.94,.22-1.62,.26-2.77l.03-1.03-.33-.03c-.86-.09-1.4-.1-2.28-.04-.53,.04-1.07,.09-1.21,.11l-.24,.04v-3.74h-.15c-.38,0-2.46,.38-3.03,.55-.48,.14-.44,.17-.73-.39-.36-.7-1.23-2-1.82-2.7-.64-.77-1.62-1.74-2.49-2.46-.38-.32-.71-.58-.73-.58s-.29,.22-.61,.48Zm.95,1.22c.92,.8,1.94,1.89,2.63,2.84,.53,.71,1.23,1.88,1.23,2.03,0,.03-.12,.09-.26,.15-1.23,.46-2.78,1.43-3.56,2.22l-.34,.35-.42-.38c-1.11-.98-2.15-1.64-3.41-2.13-.21-.08-.4-.16-.41-.17-.03-.03,.47-.93,.77-1.39,.64-.96,1.13-1.54,2.22-2.63,.62-.63,1.17-1.14,1.2-1.14,.03,0,.19,.12,.35,.26Zm-7.06,5.36c.34,.08,.69,.15,.79,.17,.09,.02,.18,.06,.18,.08,0,.03-.08,.33-.19,.67-.11,.34-.24,.91-.3,1.27s-.12,.66-.13,.68c-.02,.01-.2-.04-.41-.11s-.53-.17-.7-.2l-.31-.07v-2.7l.24,.04c.13,.02,.51,.1,.84,.17Zm14.56,1.13l-.02,1.33-.64,.18c-.35,.1-.67,.2-.72,.22-.08,.03-.1-.02-.13-.26-.07-.54-.24-1.29-.41-1.81-.09-.29-.15-.54-.13-.56,.06-.06,1.69-.42,1.94-.43h.12s-.01,1.33-.01,1.33Zm-11.3-.03c1.03,.51,1.76,1.03,2.48,1.74l.49,.48-.13,.22c-.38,.6-.88,1.65-1.08,2.29l-.07,.2-.56-.59c-.76-.8-1.73-1.52-2.65-1.96-.22-.11-.27-.15-.27-.28,0-.42,.33-1.92,.55-2.49l.06-.15,.35,.14c.19,.08,.57,.25,.85,.39Zm8.43,.44c.09,.35,.23,1.08,.3,1.59,.03,.2,.02,.21-.26,.35-.96,.49-1.8,1.1-2.59,1.91-.33,.33-.6,.6-.62,.6-.01,0-.07-.13-.12-.29-.15-.49-.61-1.47-.88-1.89-.14-.22-.25-.43-.25-.46,0-.09,.79-.86,1.25-1.21,.79-.59,1.5-1,2.43-1.38l.44-.18,.1,.28c.06,.16,.14,.46,.2,.67Zm-14.32,1.81l.41,.07,.03,2.13c.03,2.31,.03,2.3,.38,3.16,.62,1.49,2.24,3.3,4.17,4.61l.55,.38-.33-.04c-.47-.06-1.35-.29-1.97-.51-1.76-.66-3.27-1.94-4.22-3.6-.53-.92-.96-2.12-1.22-3.41-.14-.71-.3-2.09-.3-2.61v-.32l1.04,.04c.57,.02,1.22,.07,1.45,.11Zm21.19,.3c0,.24-.05,.76-.09,1.17-.47,4.29-2.51,7.22-5.83,8.38-.64,.22-1.32,.4-1.77,.45-.35,.04-.35,.03,.22-.35,1.01-.69,2.28-1.84,2.95-2.65,.72-.89,1.26-1.86,1.49-2.7,.11-.4,.12-.6,.14-2.49l.02-2.06,.53-.06c.29-.03,.61-.07,.7-.08,.09-.01,.5-.02,.91-.03h.75s-.02,.42-.02,.42Zm-18.89,.23l.61,.2,.04,.66c.15,2.46,.97,4.92,2.4,7.12,.19,.3,.33,.54,.32,.54-.13,0-1.23-.93-1.96-1.66-1.09-1.09-1.6-1.83-1.97-2.85-.14-.38-.14-.41-.17-2.31-.02-1.56,0-1.92,.06-1.91,.04,0,.35,.09,.68,.2Zm14.9,1.33c0,1.69-.05,2.2-.25,2.78-.49,1.37-1.99,3.1-3.67,4.26l-.24,.17,.12-.19c.06-.1,.21-.35,.33-.55,1.38-2.25,2.18-4.64,2.27-6.79,.03-.79,.03-.8,.18-.85,.21-.09,1.13-.37,1.21-.37,.05,0,.07,.34,.07,1.54Zm-2.6,.14c-.17,1.49-.63,2.96-1.42,4.54-.36,.73-1.11,1.94-1.4,2.29l-.16,.19,.04-.19c.02-.11,.04-.95,.04-1.88,0-1.32-.02-1.81-.09-2.24l-.09-.55,.26-.39c.32-.48,1.29-1.47,1.8-1.83,.63-.45,1.05-.68,1.07-.59,.01,.04,0,.33-.04,.64Zm-10.27-.59c.81,.46,2.16,1.68,2.63,2.38l.23,.35-.09,.67c-.13,.95-.17,2.51-.09,3.41,.04,.4,.06,.75,.04,.76-.04,.03-.76-1.05-1.14-1.71-1-1.74-1.67-3.7-1.8-5.29-.02-.23-.04-.47-.06-.54-.03-.15,.04-.15,.27-.03Z"/>
</svg>