<?xml version="1.0" encoding="utf-8"?>
<!-- Generator: Adobe Illustrator 27.0.0, SVG Export Plug-In . SVG Version: 6.00 Build 0)  -->
<svg version="1.1" id="Layer_1" xmlns="http://www.w3.org/2000/svg" xmlns:xlink="http://www.w3.org/1999/xlink" x="0px" y="0px"
	 viewBox="0 0 500 500" style="enable-background:new 0 0 500 500;" xml:space="preserve">
<g transform="translate(0.000000,500.000000) scale(0.100000,-0.100000)">
	<path d="M2380,4123c-216-180-439-413-589-616c-80-108-240-373-257-424c0-2-77,15-170,37c-149,35-411,80-465,80c-18,0-19-10-19-336
		v-337l-52,7c-211,25-437,29-620,9l-58-6v-166c0-424,80-812,235-1138c159-336,435-623,750-781c252-127,469-185,793-212
		c133-11,442-3,442,12c0,5-11,53-24,106c-32,128-63,326-76,486c-33,414,23,804,161,1119c59,135,58,135,111,20
		c165-353,221-858,147-1338c-13-88-67-369-75-388c-4-11,24-15,158-20c450-18,857,76,1184,274c439,265,731,735,834,1339
		c28,170,40,293,47,501l6,186l-59,6c-156,16-253,18-412,8c-96-7-193-16-218-20l-44-8v338v339h-27c-68,0-445-69-548-99
		c-87-26-79-30-132,71c-65,127-223,361-330,488c-116,139-293,314-450,445c-69,58-129,105-132,105S2438,4170,2380,4123z M2551,3903
		c167-145,350-342,476-513c95-128,223-340,223-368c0-5-21-17-47-27c-223-84-502-258-644-401l-62-63l-76,68c-200,178-389,296-616,386
		c-38,15-72,29-74,31c-6,5,85,169,139,251c116,174,204,278,401,476c113,114,211,207,217,207C2493,3950,2522,3929,2551,3903z
		 M1275,2934c61-14,125-28,143-31c17-3,32-10,32-14c0-5-15-60-34-122c-19-61-43-165-54-230s-22-120-24-123c-3-2-36,7-75,20
		s-96,30-127,37l-56,12v244v245l43-7C1146,2961,1215,2947,1275,2934z M3908,2729l-3-241l-115-33c-63-18-122-36-131-40
		c-14-5-18,3-24,47c-13,98-44,233-74,328c-17,52-27,98-23,101c11,10,305,76,350,78l22,1L3908,2729z M1865,2734
		c186-93,318-186,448-315l88-87l-24-40c-69-109-159-299-196-415l-13-37l-101,106c-138,145-313,274-479,355c-40,19-48,28-48,50
		c0,76,59,348,99,451l10,27l63-25C1747,2790,1815,2758,1865,2734z M3390,2655c17-64,42-196,54-288c5-36,4-38-47-64
		c-174-88-325-199-469-345c-59-59-109-108-112-108c-2,0-12,24-22,53c-28,88-111,265-159,342c-25,40-45,77-45,83
		c0,17,143,156,226,219c142,107,271,180,439,249l80,32l18-51C3363,2748,3379,2694,3390,2655z M800,2327l75-12l6-385
		c6-418,6-416,69-571c112-270,406-596,755-834l100-68l-59,7c-85,10-245,52-356,93c-318,119-591,351-764,651c-96,166-174,384-221,616
		c-26,129-55,378-55,472v57l188-7C641,2343,759,2334,800,2327z M4632,2273c-1-43-9-138-17-212c-85-775-454-1306-1054-1515
		c-115-40-239-72-321-82c-64-8-63-6,40,64c182,124,413,333,533,480c130,161,227,337,269,488c20,73,22,108,26,450l4,372l96,11
		c53,6,111,13,127,15c17,2,91,4,165,5l135,1L4632,2273z M1215,2232l110-37l7-120c27-445,176-890,434-1287c35-54,60-98,57-98
		c-24,0-222,169-354,300c-197,197-290,331-357,515c-26,69-26,74-30,418c-3,283-1,347,10,346C1099,2269,1155,2252,1215,2232z
		 M3910,1991c0-305-9-398-46-503c-89-247-360-561-664-771l-44-31l21,35c11,18,38,63,60,99c250,407,394,839,410,1228
		c6,143,6,144,32,154c38,16,204,67,219,67C3907,2270,3910,2208,3910,1991z M3440,1966c-30-269-114-536-257-821
		c-66-132-200-351-254-415l-29-35l8,35c4,19,7,172,7,340c0,238-4,327-17,405l-17,100l47,70c58,87,234,265,326,331
		c114,81,190,123,194,106C3450,2074,3447,2022,3440,1966z M1583,2073c147-83,390-303,476-431l42-63l-16-122c-23-171-30-454-16-616
		c7-73,10-135,8-138c-7-6-137,190-206,310c-181,314-302,669-326,957c-3,41-8,85-11,98C1529,2095,1541,2096,1583,2073z"/>
</g>
</svg>
